<svg xmlns="http://www.w3.org/2000/svg" xmlns:xlink="http://www.w3.org/1999/xlink" width="115" zoomAndPan="magnify" viewBox="0 0 86.25 87.749997" height="117" preserveAspectRatio="xMidYMid meet" version="1.0"><defs><clipPath id="bed4dcfe6d"><path d="M 42 13 L 83 13 L 83 54 L 42 54 Z M 42 13 " clip-rule="nonzero"/></clipPath><clipPath id="84118de286"><path d="M 39.179688 32.875 L 61.789062 10.265625 L 84.921875 33.402344 L 62.3125 56.007812 Z M 39.179688 32.875 " clip-rule="nonzero"/></clipPath><clipPath id="ab6af0cf20"><path d="M 39.179688 32.875 L 62.683594 9.371094 L 86.191406 32.875 L 62.683594 56.378906 Z M 39.179688 32.875 " clip-rule="nonzero"/></clipPath><clipPath id="93e03df27a"><path d="M 44.4375 27.617188 L 56.710938 15.34375 C 58.105469 13.949219 59.996094 13.164062 61.96875 13.164062 C 63.941406 13.164062 65.832031 13.949219 67.226562 15.34375 L 79.960938 28.078125 C 81.355469 29.472656 82.136719 31.363281 82.136719 33.335938 C 82.136719 35.304688 81.355469 37.195312 79.960938 38.589844 L 67.683594 50.867188 C 66.292969 52.261719 64.398438 53.042969 62.429688 53.042969 C 60.457031 53.042969 58.566406 52.261719 57.171875 50.867188 L 44.4375 38.132812 C 43.042969 36.738281 42.257812 34.847656 42.257812 32.875 C 42.257812 30.902344 43.042969 29.011719 44.4375 27.617188 Z M 44.4375 27.617188 " clip-rule="nonzero"/></clipPath><clipPath id="4c6870a270"><path d="M 10 3 L 49 3 L 49 42 L 10 42 Z M 10 3 " clip-rule="nonzero"/></clipPath><clipPath id="eab36318a1"><path d="M 7.273438 22.410156 L 29.355469 0.328125 L 51.960938 22.9375 L 29.878906 45.019531 Z M 7.273438 22.410156 " clip-rule="nonzero"/></clipPath><clipPath id="ceec36ac0c"><path d="M 7.273438 22.410156 L 30.777344 -1.09375 L 54.277344 22.410156 L 30.777344 45.910156 Z M 7.273438 22.410156 " clip-rule="nonzero"/></clipPath><clipPath id="dad1a66e73"><path d="M 12.53125 17.152344 L 24.171875 5.511719 C 25.566406 4.117188 27.457031 3.335938 29.425781 3.335938 C 31.398438 3.335938 33.289062 4.117188 34.683594 5.511719 L 46.523438 17.351562 C 47.917969 18.746094 48.699219 20.636719 48.699219 22.609375 C 48.699219 24.582031 47.917969 26.472656 46.523438 27.863281 L 34.882812 39.507812 C 33.488281 40.898438 31.597656 41.683594 29.625 41.683594 C 27.65625 41.683594 25.765625 40.898438 24.371094 39.507812 L 12.53125 27.664062 C 11.136719 26.269531 10.351562 24.378906 10.351562 22.410156 C 10.351562 20.4375 11.136719 18.546875 12.53125 17.152344 Z M 12.53125 17.152344 " clip-rule="nonzero"/></clipPath><clipPath id="9f09e6d261"><path d="M 3 36 L 40 36 L 40 73 L 3 73 Z M 3 36 " clip-rule="nonzero"/></clipPath><clipPath id="91c0214b4d"><path d="M 0 54.320312 L 21.03125 33.289062 L 42.585938 54.847656 L 21.554688 75.875 Z M 0 54.320312 " clip-rule="nonzero"/></clipPath><clipPath id="5d2cf174b4"><path d="M 0 54.320312 L 22.125 32.199219 L 44.25 54.320312 L 22.125 76.445312 Z M 0 54.320312 " clip-rule="nonzero"/></clipPath><clipPath id="a7e9997b4e"><path d="M 26.46875 38.367188 L 37.359375 49.257812 C 40.265625 52.160156 40.265625 56.867188 37.359375 59.773438 L 26.664062 70.46875 C 23.761719 73.371094 19.050781 73.371094 16.148438 70.46875 L 5.257812 59.578125 C 2.355469 56.675781 2.355469 51.96875 5.257812 49.066406 L 15.957031 38.367188 C 18.859375 35.464844 23.566406 35.464844 26.46875 38.367188 Z M 26.46875 38.367188 " clip-rule="nonzero"/></clipPath><clipPath id="488b76ddd9"><path d="M 32 45 L 71 45 L 71 84 L 32 84 Z M 32 45 " clip-rule="nonzero"/></clipPath><clipPath id="a4cc37fffa"><path d="M 29.832031 64.367188 L 51.386719 42.8125 L 73.46875 64.894531 L 51.914062 86.449219 Z M 29.832031 64.367188 " clip-rule="nonzero"/></clipPath><clipPath id="a15d5e6ad9"><path d="M 29.832031 64.367188 L 51.949219 42.246094 L 75.453125 65.75 L 53.332031 87.871094 Z M 29.832031 64.367188 " clip-rule="nonzero"/></clipPath><clipPath id="268816304d"><path d="M 35.085938 59.109375 L 46.304688 47.894531 C 47.699219 46.5 49.589844 45.71875 51.558594 45.71875 C 53.53125 45.71875 55.421875 46.5 56.816406 47.894531 L 68.484375 59.5625 C 69.878906 60.957031 70.660156 62.847656 70.660156 64.820312 C 70.660156 66.789062 69.878906 68.679688 68.484375 70.074219 L 57.265625 81.292969 C 55.871094 82.683594 53.980469 83.46875 52.011719 83.46875 C 50.039062 83.46875 48.148438 82.683594 46.753906 81.292969 L 35.085938 69.625 C 33.691406 68.230469 32.910156 66.339844 32.910156 64.367188 C 32.910156 62.394531 33.691406 60.503906 35.085938 59.109375 Z M 35.085938 59.109375 " clip-rule="nonzero"/></clipPath><clipPath id="2d8a3dfa57"><path d="M 28 30 L 55 30 L 55 58 L 28 58 Z M 28 30 " clip-rule="nonzero"/></clipPath><clipPath id="0884204eb4"><path d="M 42.25 30.929688 L 54.363281 45.585938 L 40.15625 57.328125 L 28.042969 42.671875 Z M 42.25 30.929688 " clip-rule="nonzero"/></clipPath><clipPath id="ad0ef03388"><path d="M 0 0.710938 L 26.484375 0.710938 L 26.484375 27.359375 L 0 27.359375 Z M 0 0.710938 " clip-rule="nonzero"/></clipPath><clipPath id="b7e2944c09"><path d="M 14.25 0.929688 L 26.363281 15.585938 L 12.15625 27.328125 L 0.0429688 12.671875 Z M 14.25 0.929688 " clip-rule="nonzero"/></clipPath><clipPath id="116137c3bb"><rect x="0" width="27" y="0" height="28"/></clipPath><clipPath id="a69afbb6c5"><path d="M 28 30 L 55 30 L 55 58 L 28 58 Z M 28 30 " clip-rule="nonzero"/></clipPath><clipPath id="58ba25d99a"><path d="M 42.25 30.929688 L 54.566406 45.832031 L 40.238281 57.675781 L 27.921875 42.773438 Z M 42.25 30.929688 " clip-rule="nonzero"/></clipPath><clipPath id="73abf9108c"><path d="M 42.25 30.933594 L 54.359375 45.582031 L 40.15625 57.320312 L 28.046875 42.667969 Z M 42.25 30.933594 " clip-rule="nonzero"/></clipPath></defs><g clip-path="url(#bed4dcfe6d)"><g clip-path="url(#84118de286)"><g clip-path="url(#ab6af0cf20)"><g clip-path="url(#93e03df27a)"><path stroke-linecap="butt" transform="matrix(0.525758, -0.525758, 0.525758, 0.525758, 39.180515, 32.874799)" fill="none" stroke-linejoin="miter" d="M 9.999459 -0.000596014 L 33.343719 -0.000596014 C 35.996138 -0.000596014 38.540826 1.050713 40.416837 2.926724 C 42.292847 4.802734 43.344156 7.347422 43.344156 9.999841 L 43.344156 34.220812 C 43.344156 36.873231 42.289133 39.414204 40.413122 41.290214 C 38.540826 43.16251 35.999853 44.217534 33.347434 44.217534 L 9.995744 44.217534 C 7.34704 44.221249 4.802352 43.16251 2.930056 41.290214 C 1.054045 39.414204 -0.00097855 36.873231 -0.00097855 34.220812 L -0.00097855 9.999841 C -0.00097855 7.347422 1.05033 4.802734 2.926341 2.926724 C 4.802352 1.050713 7.34704 -0.000596014 9.999459 -0.000596014 Z M 9.999459 -0.000596014 " stroke="#000000" stroke-width="6" stroke-opacity="1" stroke-miterlimit="4"/></g></g></g></g><g clip-path="url(#4c6870a270)"><g clip-path="url(#eab36318a1)"><g clip-path="url(#ceec36ac0c)"><g clip-path="url(#dad1a66e73)"><path stroke-linecap="butt" transform="matrix(0.525758, -0.525758, 0.525758, 0.525758, 7.273742, 22.409285)" fill="none" stroke-linejoin="miter" d="M 9.999319 0.000539218 L 32.13996 0.000539218 C 34.79238 0.000539218 37.333352 1.055563 39.205648 2.927859 C 41.081659 4.80387 42.136683 7.344843 42.136683 9.997262 L 42.136683 32.51682 C 42.136683 35.169239 41.081659 37.710212 39.205648 39.586223 C 37.329638 41.462234 34.788665 42.517258 32.13996 42.513543 L 9.995604 42.517258 C 7.3469 42.513543 4.802212 41.462234 2.926201 39.586223 C 1.053905 37.713927 0.00259648 35.169239 -0.00111839 32.520535 L 0.00259648 9.997262 C 0.00259648 7.344843 1.053905 4.800155 2.926201 2.927859 C 4.802212 1.051848 7.3469 0.000539218 9.999319 0.000539218 Z M 9.999319 0.000539218 " stroke="#000000" stroke-width="6" stroke-opacity="1" stroke-miterlimit="4"/></g></g></g></g><g clip-path="url(#9f09e6d261)"><g clip-path="url(#91c0214b4d)"><g clip-path="url(#5d2cf174b4)"><g clip-path="url(#a7e9997b4e)"><path stroke-linecap="butt" transform="matrix(0.525758, -0.525758, 0.525758, 0.525758, 0.00165784, 54.321879)" fill="none" stroke-linejoin="miter" d="M 40.343431 9.997371 L 40.343431 30.711502 C 40.347145 36.235517 35.870724 40.711939 30.342993 40.711939 L 10.00035 40.711939 C 4.480049 40.711939 -0.0000872533 36.231803 -0.0000872533 30.711502 L -0.0000872533 9.997371 C -0.0000872533 4.477071 4.476334 0.000648889 9.996635 0.000648889 L 30.346708 0.000648889 C 35.867009 0.000648889 40.343431 4.477071 40.343431 9.997371 Z M 40.343431 9.997371 " stroke="#000000" stroke-width="6" stroke-opacity="1" stroke-miterlimit="4"/></g></g></g></g><g clip-path="url(#488b76ddd9)"><g clip-path="url(#a4cc37fffa)"><g clip-path="url(#a15d5e6ad9)"><g clip-path="url(#268816304d)"><path stroke-linecap="butt" transform="matrix(0.525758, -0.525758, 0.525758, 0.525758, 29.830947, 64.36726)" fill="none" stroke-linejoin="miter" d="M 9.997822 -0.00275272 L 31.332336 0.000962149 C 33.984755 0.000962149 36.525728 1.055986 38.398024 2.928282 C 40.274035 4.804293 41.329059 7.345266 41.329059 9.997685 L 41.329059 32.190334 C 41.329059 34.842753 40.274035 37.383726 38.398024 39.259737 C 36.525728 41.132033 33.984755 42.187057 31.332336 42.187057 L 9.994107 42.187057 C 7.345403 42.183342 4.800715 41.132033 2.928419 39.259737 C 1.052409 37.383726 0.00109972 34.839039 -0.00261515 32.190334 L -0.00261515 9.997685 C -0.00261515 7.345266 1.052409 4.804293 2.928419 2.928282 C 4.80443 1.052271 7.345403 -0.00275272 9.997822 -0.00275272 Z M 9.997822 -0.00275272 " stroke="#000000" stroke-width="6" stroke-opacity="1" stroke-miterlimit="4"/></g></g></g></g><g clip-path="url(#2d8a3dfa57)"><g clip-path="url(#0884204eb4)"><g transform="matrix(1, 0, 0, 1, 28, 30)"><g clip-path="url(#116137c3bb)"><g clip-path="url(#ad0ef03388)"><g clip-path="url(#b7e2944c09)"><path fill="#000000" d="M 14.25 0.929688 L 26.359375 15.582031 L 12.152344 27.324219 L 0.0429688 12.671875 Z M 14.25 0.929688 " fill-opacity="1" fill-rule="nonzero"/></g></g></g></g></g></g><g clip-path="url(#a69afbb6c5)"><g clip-path="url(#58ba25d99a)"><g clip-path="url(#73abf9108c)"><path stroke-linecap="butt" transform="matrix(0.473678, 0.573125, -0.573125, 0.473678, 42.249569, 30.931669)" fill="none" stroke-linejoin="miter" d="M 0.00236456 0.00120237 L 25.563549 -0.00158554 L 25.563175 24.779996 L -0.0020595 24.779437 Z M 0.00236456 0.00120237 " stroke="#000000" stroke-width="4" stroke-opacity="1" stroke-miterlimit="4"/></g></g></g></svg>