<svg xmlns="http://www.w3.org/2000/svg" xmlns:xlink="http://www.w3.org/1999/xlink" width="399" zoomAndPan="magnify" viewBox="0 0 299.25 81.749997" height="109" preserveAspectRatio="xMidYMid meet" version="1.0"><defs><g/><clipPath id="241903ccbc"><rect x="0" width="93" y="0" height="54"/></clipPath><clipPath id="6f85655642"><path d="M 30 15 L 64 15 L 64 50 L 30 50 Z M 30 15 " clip-rule="nonzero"/></clipPath><clipPath id="708bd47a84"><path d="M 30.003906 32.488281 L 46.925781 15.570312 L 63.84375 32.488281 L 46.925781 49.410156 Z M 30.003906 32.488281 " clip-rule="nonzero"/></clipPath><clipPath id="475634ad8b"><path d="M 30.003906 32.488281 L 46.792969 15.703125 L 63.917969 32.828125 L 47.132812 49.613281 Z M 30.003906 32.488281 " clip-rule="nonzero"/></clipPath><clipPath id="288a82113a"><path d="M 6 8 L 40 8 L 40 42 L 6 42 Z M 6 8 " clip-rule="nonzero"/></clipPath><clipPath id="f9b671ffab"><path d="M 6.503906 24.78125 L 22.894531 8.390625 L 39.285156 24.78125 L 22.894531 41.171875 Z M 6.503906 24.78125 " clip-rule="nonzero"/></clipPath><clipPath id="95a21721b0"><path d="M 6.507812 24.78125 L 22.820312 8.464844 L 39.285156 24.929688 L 22.96875 41.242188 Z M 6.507812 24.78125 " clip-rule="nonzero"/></clipPath><clipPath id="f0f0544271"><path d="M 0.0820312 32 L 32 32 L 32 65 L 0.0820312 65 Z M 0.0820312 32 " clip-rule="nonzero"/></clipPath><clipPath id="593508a3c1"><path d="M 0.0859375 48.28125 L 15.945312 32.417969 L 31.808594 48.28125 L 15.945312 64.140625 Z M 0.0859375 48.28125 " clip-rule="nonzero"/></clipPath><clipPath id="0d62b0cb01"><path d="M 0.0859375 48.277344 L 15.703125 32.660156 L 31.46875 48.421875 L 15.847656 64.042969 Z M 0.0859375 48.277344 " clip-rule="nonzero"/></clipPath><clipPath id="985a33696a"><path d="M 23 39 L 56 39 L 56 73 L 23 73 Z M 23 39 " clip-rule="nonzero"/></clipPath><clipPath id="26ddba4b4d"><path d="M 23.519531 55.679688 L 39.382812 39.816406 L 55.773438 56.207031 L 39.910156 72.070312 Z M 23.519531 55.679688 " clip-rule="nonzero"/></clipPath><clipPath id="56c7612c40"><path d="M 23.519531 55.679688 L 39.519531 39.679688 L 55.851562 56.011719 L 39.851562 72.011719 Z M 23.519531 55.679688 " clip-rule="nonzero"/></clipPath><clipPath id="a212427aa6"><path d="M 23 32 L 40 32 L 40 49 L 23 49 Z M 23 32 " clip-rule="nonzero"/></clipPath><clipPath id="055e030ba2"><path d="M 31.140625 31.0625 L 40.777344 40.699219 L 31.707031 49.769531 L 22.070312 40.132812 Z M 31.140625 31.0625 " clip-rule="nonzero"/></clipPath><clipPath id="94568cd56b"><path d="M 33.785156 33.707031 L 38.105469 38.027344 C 38.804688 38.726562 39.199219 39.679688 39.199219 40.671875 C 39.199219 41.660156 38.804688 42.613281 38.105469 43.3125 L 34.320312 47.097656 C 33.621094 47.796875 32.667969 48.191406 31.675781 48.191406 C 30.6875 48.191406 29.734375 47.796875 29.035156 47.097656 L 24.714844 42.777344 C 24.011719 42.074219 23.621094 41.125 23.621094 40.132812 C 23.621094 39.140625 24.011719 38.191406 24.714844 37.488281 L 28.496094 33.707031 C 29.199219 33.007812 30.148438 32.613281 31.140625 32.613281 C 32.132812 32.613281 33.082031 33.007812 33.785156 33.707031 Z M 33.785156 33.707031 " clip-rule="nonzero"/></clipPath><clipPath id="2a4e3f6fd3"><path d="M 0.53125 0.539062 L 16.324219 0.539062 L 16.324219 16.332031 L 0.53125 16.332031 Z M 0.53125 0.539062 " clip-rule="nonzero"/></clipPath><clipPath id="2792c41955"><path d="M 8.140625 -0.9375 L 17.777344 8.699219 L 8.707031 17.769531 L -0.929688 8.132812 Z M 8.140625 -0.9375 " clip-rule="nonzero"/></clipPath><clipPath id="428312e778"><path d="M 10.785156 1.707031 L 15.105469 6.027344 C 15.804688 6.726562 16.199219 7.679688 16.199219 8.671875 C 16.199219 9.660156 15.804688 10.613281 15.105469 11.3125 L 11.320312 15.097656 C 10.621094 15.796875 9.667969 16.191406 8.675781 16.191406 C 7.6875 16.191406 6.734375 15.796875 6.035156 15.097656 L 1.714844 10.777344 C 1.011719 10.074219 0.621094 9.125 0.621094 8.132812 C 0.621094 7.140625 1.011719 6.191406 1.714844 5.488281 L 5.496094 1.707031 C 6.199219 1.007812 7.148438 0.613281 8.140625 0.613281 C 9.132812 0.613281 10.082031 1.007812 10.785156 1.707031 Z M 10.785156 1.707031 " clip-rule="nonzero"/></clipPath><clipPath id="6e7c480886"><rect x="0" width="17" y="0" height="17"/></clipPath><clipPath id="d9ee80dbcf"><path d="M 23 32 L 40 32 L 40 49 L 23 49 Z M 23 32 " clip-rule="nonzero"/></clipPath><clipPath id="6ac07cba54"><path d="M 31.140625 31.0625 L 40.65625 40.582031 L 31.667969 49.570312 L 22.152344 40.050781 Z M 31.140625 31.0625 " clip-rule="nonzero"/></clipPath><clipPath id="ab2f3ee885"><path d="M 31.140625 31.0625 L 41.117188 41.039062 L 32.046875 50.105469 L 22.074219 40.132812 Z M 31.140625 31.0625 " clip-rule="nonzero"/></clipPath><clipPath id="394a1ae243"><path d="M 33.78125 33.707031 L 38.097656 38.019531 C 38.796875 38.722656 39.191406 39.671875 39.191406 40.664062 C 39.191406 41.652344 38.796875 42.605469 38.097656 43.304688 L 34.320312 47.082031 C 33.617188 47.785156 32.667969 48.179688 31.675781 48.179688 C 30.6875 48.179688 29.738281 47.785156 29.035156 47.082031 L 24.71875 42.769531 C 24.019531 42.066406 23.625 41.117188 23.625 40.125 C 23.625 39.136719 24.019531 38.1875 24.71875 37.484375 L 28.5 33.707031 C 29.199219 33.003906 30.148438 32.613281 31.140625 32.613281 C 32.132812 32.613281 33.082031 33.003906 33.78125 33.707031 Z M 33.78125 33.707031 " clip-rule="nonzero"/></clipPath><clipPath id="557af782ea"><path d="M 156 36 L 177 36 L 177 52.804688 L 156 52.804688 Z M 156 36 " clip-rule="nonzero"/></clipPath><clipPath id="f6d9b59d4d"><path d="M 165.402344 52.300781 L 156.71875 45.320312 C 156.433594 45.089844 156.269531 44.746094 156.269531 44.382812 C 156.269531 44.019531 156.433594 43.671875 156.71875 43.445312 L 165.402344 36.464844 C 166.082031 35.917969 167.054688 35.917969 167.734375 36.464844 L 176.417969 43.445312 C 176.703125 43.671875 176.867188 44.019531 176.867188 44.382812 C 176.867188 44.746094 176.703125 45.089844 176.417969 45.320312 L 167.734375 52.300781 C 167.054688 52.847656 166.082031 52.847656 165.402344 52.300781 Z M 165.402344 52.300781 " clip-rule="nonzero"/></clipPath></defs><g transform="matrix(1, 0, 0, 1, 57, 13)"><g clip-path="url(#241903ccbc)"><g fill="#000000" fill-opacity="1"><g transform="translate(1.007038, 42.256853)"><g><path d="M 12.015625 0.4375 C 9.867188 0.4375 7.894531 -0.015625 6.09375 -0.921875 C 4.289062 -1.828125 2.90625 -3.117188 1.9375 -4.796875 L 4.9375 -6.953125 C 5.570312 -5.609375 6.515625 -4.550781 7.765625 -3.78125 C 9.015625 -3.019531 10.519531 -2.640625 12.28125 -2.640625 C 13.832031 -2.640625 15.046875 -2.941406 15.921875 -3.546875 C 16.804688 -4.148438 17.25 -4.929688 17.25 -5.890625 C 17.25 -6.515625 17.050781 -7.082031 16.65625 -7.59375 C 16.257812 -8.101562 15.503906 -8.476562 14.390625 -8.71875 L 9.109375 -9.8125 C 6.960938 -10.25 5.425781 -10.984375 4.5 -12.015625 C 3.582031 -13.046875 3.125 -14.320312 3.125 -15.84375 C 3.125 -17.050781 3.46875 -18.148438 4.15625 -19.140625 C 4.84375 -20.140625 5.820312 -20.941406 7.09375 -21.546875 C 8.375 -22.148438 9.882812 -22.453125 11.625 -22.453125 C 13.789062 -22.453125 15.617188 -22.023438 17.109375 -21.171875 C 18.609375 -20.316406 19.726562 -19.113281 20.46875 -17.5625 L 17.515625 -15.625 C 17.015625 -16.914062 16.207031 -17.859375 15.09375 -18.453125 C 13.976562 -19.054688 12.820312 -19.359375 11.625 -19.359375 C 10.5625 -19.359375 9.65625 -19.210938 8.90625 -18.921875 C 8.164062 -18.628906 7.597656 -18.226562 7.203125 -17.71875 C 6.804688 -17.207031 6.609375 -16.628906 6.609375 -15.984375 C 6.609375 -15.335938 6.828125 -14.738281 7.265625 -14.1875 C 7.703125 -13.644531 8.523438 -13.257812 9.734375 -13.03125 L 15.234375 -11.890625 C 17.285156 -11.472656 18.722656 -10.796875 19.546875 -9.859375 C 20.367188 -8.921875 20.78125 -7.773438 20.78125 -6.421875 C 20.78125 -5.046875 20.410156 -3.835938 19.671875 -2.796875 C 18.941406 -1.753906 17.914062 -0.953125 16.59375 -0.390625 C 15.269531 0.160156 13.742188 0.4375 12.015625 0.4375 Z M 12.015625 0.4375 "/></g></g></g><g fill="#000000" fill-opacity="1"><g transform="translate(24.203596, 42.256853)"><g><path d="M 4.09375 0 L 4.09375 -22.015625 L 7.171875 -22.015625 L 7.390625 -18.578125 C 8.179688 -19.921875 9.210938 -20.898438 10.484375 -21.515625 C 11.765625 -22.140625 13.082031 -22.453125 14.4375 -22.453125 C 15.988281 -22.453125 17.453125 -22.097656 18.828125 -21.390625 C 20.210938 -20.679688 21.273438 -19.597656 22.015625 -18.140625 C 22.484375 -19.128906 23.140625 -19.941406 23.984375 -20.578125 C 24.835938 -21.210938 25.769531 -21.679688 26.78125 -21.984375 C 27.789062 -22.296875 28.753906 -22.453125 29.671875 -22.453125 C 31.078125 -22.453125 32.414062 -22.15625 33.6875 -21.5625 C 34.96875 -20.976562 36.019531 -20.066406 36.84375 -18.828125 C 37.664062 -17.597656 38.078125 -16.015625 38.078125 -14.078125 L 38.078125 0 L 34.546875 0 L 34.546875 -13.734375 C 34.546875 -15.722656 34.046875 -17.15625 33.046875 -18.03125 C 32.054688 -18.914062 30.828125 -19.359375 29.359375 -19.359375 C 28.210938 -19.359375 27.140625 -19.078125 26.140625 -18.515625 C 25.148438 -17.960938 24.351562 -17.144531 23.75 -16.0625 C 23.144531 -14.976562 22.84375 -13.644531 22.84375 -12.0625 L 22.84375 0 L 19.328125 0 L 19.328125 -13.734375 C 19.328125 -15.722656 18.828125 -17.15625 17.828125 -18.03125 C 16.828125 -18.914062 15.59375 -19.359375 14.125 -19.359375 C 13.15625 -19.359375 12.164062 -19.101562 11.15625 -18.59375 C 10.144531 -18.082031 9.300781 -17.269531 8.625 -16.15625 C 7.945312 -15.039062 7.609375 -13.570312 7.609375 -11.75 L 7.609375 0 Z M 4.09375 0 "/></g></g></g><g fill="#000000" fill-opacity="1"><g transform="translate(66.151068, 42.256853)"><g><path d="M 13.203125 -22.453125 C 15.285156 -22.453125 17.125 -21.992188 18.71875 -21.078125 C 20.320312 -20.171875 21.578125 -18.859375 22.484375 -17.140625 C 23.398438 -15.421875 23.859375 -13.375 23.859375 -11 C 23.859375 -8.625 23.398438 -6.578125 22.484375 -4.859375 C 21.578125 -3.140625 20.320312 -1.828125 18.71875 -0.921875 C 17.125 -0.015625 15.285156 0.4375 13.203125 0.4375 C 11.148438 0.4375 9.316406 -0.015625 7.703125 -0.921875 C 6.085938 -1.828125 4.820312 -3.140625 3.90625 -4.859375 C 3 -6.578125 2.546875 -8.625 2.546875 -11 C 2.546875 -13.375 3 -15.421875 3.90625 -17.140625 C 4.820312 -18.859375 6.085938 -20.171875 7.703125 -21.078125 C 9.316406 -21.992188 11.148438 -22.453125 13.203125 -22.453125 Z M 13.203125 -19.40625 C 11.703125 -19.40625 10.425781 -19.066406 9.375 -18.390625 C 8.320312 -17.722656 7.507812 -16.765625 6.9375 -15.515625 C 6.363281 -14.265625 6.078125 -12.757812 6.078125 -11 C 6.078125 -9.269531 6.363281 -7.773438 6.9375 -6.515625 C 7.507812 -5.253906 8.320312 -4.285156 9.375 -3.609375 C 10.425781 -2.929688 11.703125 -2.59375 13.203125 -2.59375 C 14.703125 -2.59375 15.976562 -2.929688 17.03125 -3.609375 C 18.09375 -4.285156 18.90625 -5.253906 19.46875 -6.515625 C 20.039062 -7.773438 20.328125 -9.269531 20.328125 -11 C 20.328125 -12.757812 20.039062 -14.265625 19.46875 -15.515625 C 18.90625 -16.765625 18.09375 -17.722656 17.03125 -18.390625 C 15.976562 -19.066406 14.703125 -19.40625 13.203125 -19.40625 Z M 13.203125 -19.40625 "/></g></g></g></g></g><g clip-path="url(#6f85655642)"><g clip-path="url(#708bd47a84)"><g clip-path="url(#475634ad8b)"><path stroke-linecap="butt" transform="matrix(0.528713, -0.528713, 0.528713, 0.528713, 30.005815, 32.489462)" fill="none" stroke-linejoin="miter" d="M -0.000688468 -0.0029219 L 31.750192 0.000772213 L 31.750192 32.390734 L 0.00300564 32.390734 Z M -0.000688468 -0.0029219 " stroke="#000000" stroke-width="6" stroke-opacity="1" stroke-miterlimit="4"/></g></g></g><g clip-path="url(#288a82113a)"><g clip-path="url(#f9b671ffab)"><g clip-path="url(#95a21721b0)"><path stroke-linecap="butt" transform="matrix(0.528713, -0.528713, 0.528713, 0.528713, 6.506225, 24.780784)" fill="none" stroke-linejoin="miter" d="M 0.00106049 0.00194212 L 30.857967 -0.00175199 L 30.857967 31.139601 L 0.00106049 31.135907 Z M 0.00106049 0.00194212 " stroke="#000000" stroke-width="6" stroke-opacity="1" stroke-miterlimit="4"/></g></g></g><g clip-path="url(#f0f0544271)"><g clip-path="url(#593508a3c1)"><g clip-path="url(#0d62b0cb01)"><path stroke-linecap="butt" transform="matrix(0.528713, -0.528713, 0.528713, 0.528713, 0.0858588, 48.279046)" fill="none" stroke-linejoin="miter" d="M 0.00168446 -0.00153569 L 29.539793 -0.00153569 L 29.543487 29.813631 L -0.00200965 29.813631 Z M 0.00168446 -0.00153569 " stroke="#000000" stroke-width="6" stroke-opacity="1" stroke-miterlimit="4"/></g></g></g><g clip-path="url(#985a33696a)"><g clip-path="url(#26ddba4b4d)"><g clip-path="url(#56c7612c40)"><path stroke-linecap="butt" transform="matrix(0.528713, -0.528713, 0.528713, 0.528713, 23.521028, 55.678659)" fill="none" stroke-linejoin="miter" d="M -0.00238812 -0.000443381 L 30.259766 -0.000443381 L 30.259766 30.88971 L -0.00238812 30.88971 Z M -0.00238812 -0.000443381 " stroke="#000000" stroke-width="6" stroke-opacity="1" stroke-miterlimit="4"/></g></g></g><g clip-path="url(#a212427aa6)"><g clip-path="url(#055e030ba2)"><g clip-path="url(#94568cd56b)"><g transform="matrix(1, 0, 0, 1, 23, 32)"><g clip-path="url(#6e7c480886)"><g clip-path="url(#2a4e3f6fd3)"><g clip-path="url(#2792c41955)"><g clip-path="url(#428312e778)"><path fill="#000000" d="M 8.140625 -0.9375 L 17.742188 8.664062 L 8.671875 17.734375 L -0.929688 8.132812 Z M 8.140625 -0.9375 " fill-opacity="1" fill-rule="nonzero"/></g></g></g></g></g></g></g></g><g clip-path="url(#d9ee80dbcf)"><g clip-path="url(#6ac07cba54)"><g clip-path="url(#ab2f3ee885)"><g clip-path="url(#394a1ae243)"><path stroke-linecap="butt" transform="matrix(0.528713, 0.528713, -0.528713, 0.528713, 31.141018, 31.064068)" fill="none" stroke-linejoin="miter" d="M 4.996277 0.00258283 L 13.156568 -0.00111128 C 14.482753 0.00258283 15.753527 0.527147 16.691832 1.465451 C 17.626442 2.400061 18.154699 3.674529 18.154699 4.99702 L 18.154699 12.14143 C 18.154699 13.47131 17.630136 14.742084 16.691832 15.680388 C 15.757222 16.614998 14.486447 17.139562 13.156568 17.139562 L 4.996277 17.143256 C 3.670092 17.139562 2.399317 16.614998 1.461013 15.676694 C 0.526403 14.742084 0.00183967 13.47131 -0.00185444 12.145124 L 0.00183967 4.99702 C -0.00185444 3.670835 0.526403 2.403755 1.464707 1.465451 C 2.403012 0.527147 3.670092 -0.00111128 4.996277 0.00258283 Z M 4.996277 0.00258283 " stroke="#000000" stroke-width="4" stroke-opacity="1" stroke-miterlimit="4"/></g></g></g></g><path stroke-linecap="round" transform="matrix(0.522552, 0.534804, -0.534804, 0.522552, 23.556424, 57.337559)" fill="none" stroke-linejoin="miter" d="M 0.501361 0.500427 L 25.767069 0.499526 " stroke="#000000" stroke-width="1" stroke-opacity="1" stroke-miterlimit="4"/><path stroke-linecap="round" transform="matrix(0.528713, -0.528713, 0.528713, 0.528713, 5.087574, 22.377822)" fill="none" stroke-linejoin="miter" d="M 0.499826 0.501877 L 25.763849 0.498183 " stroke="#000000" stroke-width="1" stroke-opacity="1" stroke-miterlimit="4"/><g clip-path="url(#557af782ea)"><g clip-path="url(#f6d9b59d4d)"><path stroke-linecap="butt" transform="matrix(-0.747713, 0, 0, -0.747713, 177.584348, 53.237996)" fill="none" stroke-linejoin="miter" d="M 16.292347 1.253441 L 27.90588 10.589197 C 28.287251 10.897429 28.50667 11.357164 28.50667 11.84302 C 28.50667 12.328876 28.287251 12.793836 27.90588 13.096843 L 16.292347 22.432598 C 15.383325 23.163995 14.082484 23.163995 13.173462 22.432598 L 1.559929 13.096843 C 1.178557 12.793836 0.959138 12.328876 0.959138 11.84302 C 0.959138 11.357164 1.178557 10.897429 1.559929 10.589197 L 13.173462 1.253441 C 14.082484 0.522045 15.383325 0.522045 16.292347 1.253441 Z M 16.292347 1.253441 " stroke="#000000" stroke-width="6" stroke-opacity="1" stroke-miterlimit="4"/></g></g><g fill="#505050" fill-opacity="1"><g transform="translate(182.710726, 52.522338)"><g><path d="M 19.625 -19.734375 L 19.078125 -17.5 L 12.40625 -17.5 L 8.375 0 L 5.984375 0 L 10.015625 -17.5 L 3.234375 -17.5 L 3.765625 -19.734375 Z M 19.625 -19.734375 "/></g></g></g><g fill="#505050" fill-opacity="1"><g transform="translate(198.352876, 52.522338)"><g><path d="M 0.921875 0 L 4.390625 -14.953125 L 6.34375 -14.953125 L 6.015625 -11.515625 L 5.65625 -11.71875 C 5.96875 -12.457031 6.40625 -13.09375 6.96875 -13.625 C 7.53125 -14.15625 8.160156 -14.554688 8.859375 -14.828125 C 9.566406 -15.109375 10.269531 -15.25 10.96875 -15.25 C 11.289062 -15.25 11.578125 -15.226562 11.828125 -15.1875 C 12.078125 -15.144531 12.300781 -15.078125 12.5 -14.984375 L 11.78125 -12.703125 C 11.582031 -12.804688 11.359375 -12.882812 11.109375 -12.9375 C 10.859375 -12.988281 10.566406 -13.015625 10.234375 -13.015625 C 9.472656 -13.015625 8.757812 -12.835938 8.09375 -12.484375 C 7.425781 -12.140625 6.84375 -11.609375 6.34375 -10.890625 C 5.84375 -10.171875 5.460938 -9.242188 5.203125 -8.109375 L 3.3125 0 Z M 0.921875 0 "/></g></g></g><g fill="#505050" fill-opacity="1"><g transform="translate(209.478843, 52.522338)"><g><path d="M 7.5 0.234375 C 6.34375 0.234375 5.328125 -0.0390625 4.453125 -0.59375 C 3.578125 -1.15625 2.890625 -1.925781 2.390625 -2.90625 C 1.890625 -3.894531 1.640625 -5.039062 1.640625 -6.34375 C 1.640625 -7.570312 1.828125 -8.722656 2.203125 -9.796875 C 2.585938 -10.878906 3.117188 -11.828125 3.796875 -12.640625 C 4.472656 -13.460938 5.28125 -14.101562 6.21875 -14.5625 C 7.15625 -15.019531 8.171875 -15.25 9.265625 -15.25 C 10.148438 -15.25 10.941406 -15.097656 11.640625 -14.796875 C 12.335938 -14.503906 12.914062 -14.082031 13.375 -13.53125 C 13.832031 -12.976562 14.148438 -12.328125 14.328125 -11.578125 L 15.109375 -14.953125 L 17.5 -14.953125 L 14.03125 0 L 11.9375 0 L 12.4375 -2.78125 C 11.957031 -1.863281 11.273438 -1.128906 10.390625 -0.578125 C 9.503906 -0.0351562 8.539062 0.234375 7.5 0.234375 Z M 8.140625 -1.796875 C 8.835938 -1.796875 9.5 -1.972656 10.125 -2.328125 C 10.75 -2.691406 11.304688 -3.1875 11.796875 -3.8125 C 12.285156 -4.4375 12.671875 -5.171875 12.953125 -6.015625 C 13.234375 -6.867188 13.375 -7.785156 13.375 -8.765625 C 13.375 -9.660156 13.207031 -10.441406 12.875 -11.109375 C 12.539062 -11.773438 12.078125 -12.285156 11.484375 -12.640625 C 10.898438 -13.003906 10.210938 -13.1875 9.421875 -13.1875 C 8.617188 -13.1875 7.890625 -13.007812 7.234375 -12.65625 C 6.578125 -12.3125 6.007812 -11.828125 5.53125 -11.203125 C 5.050781 -10.585938 4.675781 -9.867188 4.40625 -9.046875 C 4.132812 -8.222656 4 -7.332031 4 -6.375 C 4 -5.394531 4.160156 -4.566406 4.484375 -3.890625 C 4.804688 -3.210938 5.269531 -2.691406 5.875 -2.328125 C 6.476562 -1.972656 7.234375 -1.796875 8.140625 -1.796875 Z M 8.140625 -1.796875 "/></g></g></g><g fill="#505050" fill-opacity="1"><g transform="translate(227.902488, 52.522338)"><g><path d="M 8.28125 0.265625 C 6.90625 0.265625 5.722656 -0.0351562 4.734375 -0.640625 C 3.753906 -1.253906 3.003906 -2.070312 2.484375 -3.09375 C 1.960938 -4.125 1.703125 -5.253906 1.703125 -6.484375 C 1.703125 -8.203125 2.03125 -9.710938 2.6875 -11.015625 C 3.34375 -12.328125 4.257812 -13.351562 5.4375 -14.09375 C 6.613281 -14.84375 7.984375 -15.21875 9.546875 -15.21875 C 10.679688 -15.21875 11.671875 -15.019531 12.515625 -14.625 C 13.359375 -14.226562 14.046875 -13.679688 14.578125 -12.984375 C 15.109375 -12.285156 15.460938 -11.492188 15.640625 -10.609375 L 13.125 -10.015625 C 13.050781 -10.890625 12.707031 -11.628906 12.09375 -12.234375 C 11.488281 -12.847656 10.597656 -13.15625 9.421875 -13.15625 C 8.660156 -13.15625 7.957031 -12.992188 7.3125 -12.671875 C 6.664062 -12.359375 6.101562 -11.90625 5.625 -11.3125 C 5.144531 -10.726562 4.773438 -10.03125 4.515625 -9.21875 C 4.253906 -8.414062 4.125 -7.515625 4.125 -6.515625 C 4.125 -5.640625 4.289062 -4.84375 4.625 -4.125 C 4.96875 -3.40625 5.460938 -2.835938 6.109375 -2.421875 C 6.765625 -2.003906 7.566406 -1.796875 8.515625 -1.796875 C 9.296875 -1.796875 10.03125 -1.992188 10.71875 -2.390625 C 11.40625 -2.785156 11.890625 -3.375 12.171875 -4.15625 L 14.5 -3.3125 C 13.988281 -2.15625 13.175781 -1.269531 12.0625 -0.65625 C 10.957031 -0.0390625 9.695312 0.265625 8.28125 0.265625 Z M 8.28125 0.265625 "/></g></g></g><g fill="#505050" fill-opacity="1"><g transform="translate(243.99326, 52.522338)"><g><path d="M 16.984375 -14.953125 L 9.1875 -8.46875 L 8.671875 -8.140625 L 2.875 -3.296875 L 3.3125 -6.34375 L 13.640625 -14.953125 Z M 8.375 -21.828125 L 3.3125 0 L 0.921875 0 L 5.984375 -21.828125 Z M 9.625 -9.71875 L 13.875 0 L 11.28125 0 L 7.6875 -8.4375 Z M 9.625 -9.71875 "/></g></g></g><g fill="#505050" fill-opacity="1"><g transform="translate(259.605496, 52.522338)"><g><path d="M 8.25 0.265625 C 6.875 0.265625 5.691406 -0.03125 4.703125 -0.625 C 3.722656 -1.226562 2.972656 -2.035156 2.453125 -3.046875 C 1.929688 -4.066406 1.671875 -5.203125 1.671875 -6.453125 C 1.671875 -8.015625 1.976562 -9.460938 2.59375 -10.796875 C 3.21875 -12.128906 4.125 -13.195312 5.3125 -14 C 6.5 -14.8125 7.9375 -15.21875 9.625 -15.21875 C 10.84375 -15.21875 11.882812 -14.96875 12.75 -14.46875 C 13.625 -13.976562 14.289062 -13.296875 14.75 -12.421875 C 15.207031 -11.554688 15.4375 -10.578125 15.4375 -9.484375 C 15.4375 -9.078125 15.398438 -8.660156 15.328125 -8.234375 C 15.253906 -7.804688 15.148438 -7.363281 15.015625 -6.90625 L 2.84375 -6.90625 L 2.84375 -9 L 13.96875 -9 L 12.921875 -8.171875 C 12.984375 -8.398438 13.023438 -8.632812 13.046875 -8.875 C 13.078125 -9.113281 13.09375 -9.34375 13.09375 -9.5625 C 13.09375 -10.28125 12.945312 -10.910156 12.65625 -11.453125 C 12.375 -11.992188 11.960938 -12.410156 11.421875 -12.703125 C 10.878906 -13.003906 10.234375 -13.15625 9.484375 -13.15625 C 8.503906 -13.15625 7.671875 -12.960938 6.984375 -12.578125 C 6.296875 -12.191406 5.738281 -11.664062 5.3125 -11 C 4.882812 -10.34375 4.570312 -9.609375 4.375 -8.796875 C 4.1875 -7.992188 4.09375 -7.1875 4.09375 -6.375 C 4.09375 -5.476562 4.273438 -4.679688 4.640625 -3.984375 C 5.015625 -3.296875 5.53125 -2.757812 6.1875 -2.375 C 6.84375 -1.988281 7.617188 -1.796875 8.515625 -1.796875 C 9.535156 -1.816406 10.375 -2.035156 11.03125 -2.453125 C 11.6875 -2.867188 12.226562 -3.414062 12.65625 -4.09375 L 14.53125 -2.84375 C 14.09375 -2.207031 13.5625 -1.65625 12.9375 -1.1875 C 12.320312 -0.71875 11.617188 -0.359375 10.828125 -0.109375 C 10.046875 0.140625 9.1875 0.265625 8.25 0.265625 Z M 8.25 0.265625 "/></g></g></g><g fill="#505050" fill-opacity="1"><g transform="translate(276.713158, 52.522338)"><g><path d="M 0.921875 0 L 4.390625 -14.953125 L 6.34375 -14.953125 L 6.015625 -11.515625 L 5.65625 -11.71875 C 5.96875 -12.457031 6.40625 -13.09375 6.96875 -13.625 C 7.53125 -14.15625 8.160156 -14.554688 8.859375 -14.828125 C 9.566406 -15.109375 10.269531 -15.25 10.96875 -15.25 C 11.289062 -15.25 11.578125 -15.226562 11.828125 -15.1875 C 12.078125 -15.144531 12.300781 -15.078125 12.5 -14.984375 L 11.78125 -12.703125 C 11.582031 -12.804688 11.359375 -12.882812 11.109375 -12.9375 C 10.859375 -12.988281 10.566406 -13.015625 10.234375 -13.015625 C 9.472656 -13.015625 8.757812 -12.835938 8.09375 -12.484375 C 7.425781 -12.140625 6.84375 -11.609375 6.34375 -10.890625 C 5.84375 -10.171875 5.460938 -9.242188 5.203125 -8.109375 L 3.3125 0 Z M 0.921875 0 "/></g></g></g></svg>