<svg xmlns="http://www.w3.org/2000/svg" xmlns:xlink="http://www.w3.org/1999/xlink" width="300" zoomAndPan="magnify" viewBox="0 0 224.87999 110.999996" height="148" preserveAspectRatio="xMidYMid meet" version="1.0"><defs><g/><clipPath id="0cec81f628"><rect x="0" width="126" y="0" height="73"/></clipPath><clipPath id="54e404c091"><path d="M 40 21 L 88 21 L 88 68 L 40 68 Z M 40 21 " clip-rule="nonzero"/></clipPath><clipPath id="37ae241f10"><path d="M 40.960938 44.5 L 63.753906 21.707031 L 87.078125 45.03125 L 64.285156 67.824219 Z M 40.960938 44.5 " clip-rule="nonzero"/></clipPath><clipPath id="12a19e4b64"><path d="M 40.960938 44.5 L 63.9375 21.527344 L 87.375 44.964844 L 64.402344 67.9375 Z M 40.960938 44.5 " clip-rule="nonzero"/></clipPath><clipPath id="5754b9b953"><path d="M 8 11 L 54 11 L 54 57 L 8 57 Z M 8 11 " clip-rule="nonzero"/></clipPath><clipPath id="8170bb4cd3"><path d="M 8.792969 33.949219 L 31.054688 11.6875 L 53.847656 34.480469 L 31.585938 56.742188 Z M 8.792969 33.949219 " clip-rule="nonzero"/></clipPath><clipPath id="8ad5de51be"><path d="M 8.796875 33.949219 L 31.128906 11.617188 L 53.664062 34.152344 L 31.332031 56.484375 Z M 8.796875 33.949219 " clip-rule="nonzero"/></clipPath><clipPath id="229170c704"><path d="M 0 44 L 43 44 L 43 88 L 0 88 Z M 0 44 " clip-rule="nonzero"/></clipPath><clipPath id="4d341ffbdc"><path d="M 0.00390625 66.121094 L 21.207031 44.917969 L 42.9375 66.648438 L 21.734375 87.851562 Z M 0.00390625 66.121094 " clip-rule="nonzero"/></clipPath><clipPath id="6073d21786"><path d="M 0.0078125 66.117188 L 21.386719 44.738281 L 42.960938 66.3125 L 21.582031 87.691406 Z M 0.0078125 66.117188 " clip-rule="nonzero"/></clipPath><clipPath id="ec59bafae2"><path d="M 32 54 L 77 54 L 77 99 L 32 99 Z M 32 54 " clip-rule="nonzero"/></clipPath><clipPath id="e908f98305"><path d="M 32.082031 76.25 L 53.8125 54.519531 L 76.074219 76.78125 L 54.34375 98.511719 Z M 32.082031 76.25 " clip-rule="nonzero"/></clipPath><clipPath id="0039e9ea45"><path d="M 32.082031 76.25 L 53.988281 54.34375 L 76.347656 76.703125 L 54.441406 98.609375 Z M 32.082031 76.25 " clip-rule="nonzero"/></clipPath><clipPath id="6f92dc5ecf"><path d="M 31 44 L 55 44 L 55 67 L 31 67 Z M 31 44 " clip-rule="nonzero"/></clipPath><clipPath id="bf977c54db"><path d="M 42.519531 42.550781 L 55.710938 55.742188 L 43.296875 68.160156 L 30.105469 54.96875 Z M 42.519531 42.550781 " clip-rule="nonzero"/></clipPath><clipPath id="a5aedb8566"><path d="M 45.171875 45.203125 L 53.019531 53.050781 C 53.722656 53.753906 54.117188 54.707031 54.117188 55.703125 C 54.117188 56.695312 53.722656 57.648438 53.019531 58.351562 L 45.90625 65.46875 C 45.203125 66.171875 44.25 66.566406 43.253906 66.566406 C 42.261719 66.566406 41.308594 66.171875 40.605469 65.46875 L 32.753906 57.617188 C 32.050781 56.914062 31.65625 55.960938 31.65625 54.96875 C 31.65625 53.972656 32.050781 53.019531 32.753906 52.316406 L 39.871094 45.203125 C 40.574219 44.5 41.527344 44.105469 42.519531 44.105469 C 43.515625 44.105469 44.46875 44.5 45.171875 45.203125 Z M 45.171875 45.203125 " clip-rule="nonzero"/></clipPath><clipPath id="41de0ea56c"><path d="M 0.421875 0 L 23.210938 0 L 23.210938 22.714844 L 0.421875 22.714844 Z M 0.421875 0 " clip-rule="nonzero"/></clipPath><clipPath id="1299f8155b"><path d="M 11.519531 -1.449219 L 24.710938 11.742188 L 12.296875 24.160156 L -0.894531 10.96875 Z M 11.519531 -1.449219 " clip-rule="nonzero"/></clipPath><clipPath id="95f605796a"><path d="M 14.171875 1.203125 L 22.019531 9.050781 C 22.722656 9.753906 23.117188 10.707031 23.117188 11.703125 C 23.117188 12.695312 22.722656 13.648438 22.019531 14.351562 L 14.90625 21.46875 C 14.203125 22.171875 13.25 22.566406 12.253906 22.566406 C 11.261719 22.566406 10.308594 22.171875 9.605469 21.46875 L 1.753906 13.617188 C 1.050781 12.914062 0.65625 11.960938 0.65625 10.96875 C 0.65625 9.972656 1.050781 9.019531 1.753906 8.316406 L 8.871094 1.203125 C 9.574219 0.5 10.527344 0.105469 11.519531 0.105469 C 12.515625 0.105469 13.46875 0.5 14.171875 1.203125 Z M 14.171875 1.203125 " clip-rule="nonzero"/></clipPath><clipPath id="5bf49aec2c"><rect x="0" width="24" y="0" height="23"/></clipPath><clipPath id="6ba7f74e35"><path d="M 31 44 L 55 44 L 55 67 L 31 67 Z M 31 44 " clip-rule="nonzero"/></clipPath><clipPath id="b4ecd1a096"><path d="M 42.519531 42.550781 L 55.769531 55.804688 L 43.582031 67.996094 L 30.328125 54.742188 Z M 42.519531 42.550781 " clip-rule="nonzero"/></clipPath><clipPath id="4fc96c3545"><path d="M 42.515625 42.554688 L 56.175781 56.214844 L 43.757812 68.628906 L 30.101562 54.972656 Z M 42.515625 42.554688 " clip-rule="nonzero"/></clipPath><clipPath id="440bca7d39"><path d="M 45.167969 45.203125 L 53.011719 53.050781 C 53.714844 53.753906 54.109375 54.703125 54.109375 55.699219 C 54.109375 56.691406 53.714844 57.644531 53.011719 58.347656 L 45.902344 65.457031 C 45.199219 66.160156 44.246094 66.554688 43.25 66.554688 C 42.257812 66.554688 41.304688 66.160156 40.601562 65.457031 L 32.757812 57.613281 C 32.054688 56.910156 31.660156 55.957031 31.660156 54.964844 C 31.660156 53.972656 32.054688 53.019531 32.757812 52.316406 L 39.867188 45.203125 C 40.570312 44.5 41.523438 44.105469 42.515625 44.105469 C 43.511719 44.105469 44.464844 44.5 45.167969 45.203125 Z M 45.167969 45.203125 " clip-rule="nonzero"/></clipPath></defs><g transform="matrix(1, 0, 0, 1, 79, 18)"><g clip-path="url(#0cec81f628)"><g fill="#000000" fill-opacity="1"><g transform="translate(0.291708, 57.669349)"><g><path d="M 16.453125 0.609375 C 13.515625 0.609375 10.8125 -0.015625 8.34375 -1.265625 C 5.875 -2.515625 3.976562 -4.28125 2.65625 -6.5625 L 6.75 -9.515625 C 7.632812 -7.671875 8.925781 -6.222656 10.625 -5.171875 C 12.332031 -4.128906 14.394531 -3.609375 16.8125 -3.609375 C 18.9375 -3.609375 20.601562 -4.019531 21.8125 -4.84375 C 23.019531 -5.664062 23.625 -6.742188 23.625 -8.078125 C 23.625 -8.921875 23.347656 -9.691406 22.796875 -10.390625 C 22.253906 -11.097656 21.222656 -11.609375 19.703125 -11.921875 L 12.46875 -13.4375 C 9.539062 -14.039062 7.441406 -15.046875 6.171875 -16.453125 C 4.910156 -17.859375 4.28125 -19.601562 4.28125 -21.6875 C 4.28125 -23.332031 4.75 -24.835938 5.6875 -26.203125 C 6.632812 -27.566406 7.976562 -28.660156 9.71875 -29.484375 C 11.46875 -30.316406 13.53125 -30.734375 15.90625 -30.734375 C 18.875 -30.734375 21.382812 -30.148438 23.4375 -28.984375 C 25.488281 -27.816406 27.015625 -26.171875 28.015625 -24.046875 L 23.984375 -21.390625 C 23.296875 -23.160156 22.1875 -24.457031 20.65625 -25.28125 C 19.132812 -26.101562 17.550781 -26.515625 15.90625 -26.515625 C 14.457031 -26.515625 13.222656 -26.3125 12.203125 -25.90625 C 11.179688 -25.507812 10.394531 -24.957031 9.84375 -24.25 C 9.300781 -23.550781 9.03125 -22.757812 9.03125 -21.875 C 9.03125 -20.988281 9.332031 -20.171875 9.9375 -19.421875 C 10.539062 -18.679688 11.664062 -18.148438 13.3125 -17.828125 L 20.84375 -16.265625 C 23.65625 -15.703125 25.625 -14.773438 26.75 -13.484375 C 27.875 -12.203125 28.4375 -10.640625 28.4375 -8.796875 C 28.4375 -6.910156 27.929688 -5.253906 26.921875 -3.828125 C 25.921875 -2.398438 24.515625 -1.300781 22.703125 -0.53125 C 20.898438 0.226562 18.816406 0.609375 16.453125 0.609375 Z M 16.453125 0.609375 "/></g></g></g><g fill="#000000" fill-opacity="1"><g transform="translate(32.044907, 57.669349)"><g><path d="M 5.609375 0 L 5.609375 -30.125 L 9.828125 -30.125 L 10.125 -25.421875 C 11.207031 -27.273438 12.617188 -28.625 14.359375 -29.46875 C 16.109375 -30.3125 17.910156 -30.734375 19.765625 -30.734375 C 21.890625 -30.734375 23.894531 -30.25 25.78125 -29.28125 C 27.675781 -28.3125 29.125 -26.828125 30.125 -24.828125 C 30.769531 -26.191406 31.671875 -27.304688 32.828125 -28.171875 C 33.992188 -29.035156 35.269531 -29.675781 36.65625 -30.09375 C 38.039062 -30.519531 39.359375 -30.734375 40.609375 -30.734375 C 42.535156 -30.734375 44.375 -30.328125 46.125 -29.515625 C 47.875 -28.710938 49.304688 -27.46875 50.421875 -25.78125 C 51.546875 -24.09375 52.109375 -21.925781 52.109375 -19.28125 L 52.109375 0 L 47.296875 0 L 47.296875 -18.796875 C 47.296875 -21.523438 46.613281 -23.492188 45.25 -24.703125 C 43.882812 -25.910156 42.195312 -26.515625 40.1875 -26.515625 C 38.625 -26.515625 37.15625 -26.128906 35.78125 -25.359375 C 34.414062 -24.597656 33.320312 -23.472656 32.5 -21.984375 C 31.675781 -20.503906 31.265625 -18.679688 31.265625 -16.515625 L 31.265625 0 L 26.453125 0 L 26.453125 -18.796875 C 26.453125 -21.523438 25.769531 -23.492188 24.40625 -24.703125 C 23.039062 -25.910156 21.351562 -26.515625 19.34375 -26.515625 C 18.019531 -26.515625 16.660156 -26.160156 15.265625 -25.453125 C 13.878906 -24.753906 12.722656 -23.640625 11.796875 -22.109375 C 10.878906 -20.585938 10.421875 -18.582031 10.421875 -16.09375 L 10.421875 0 Z M 5.609375 0 "/></g></g></g><g fill="#000000" fill-opacity="1"><g transform="translate(89.465772, 57.669349)"><g><path d="M 18.078125 -30.734375 C 20.929688 -30.734375 23.453125 -30.109375 25.640625 -28.859375 C 27.828125 -27.609375 29.539062 -25.804688 30.78125 -23.453125 C 32.03125 -21.109375 32.65625 -18.3125 32.65625 -15.0625 C 32.65625 -11.8125 32.03125 -9.007812 30.78125 -6.65625 C 29.539062 -4.3125 27.828125 -2.515625 25.640625 -1.265625 C 23.453125 -0.015625 20.929688 0.609375 18.078125 0.609375 C 15.265625 0.609375 12.753906 -0.015625 10.546875 -1.265625 C 8.335938 -2.515625 6.609375 -4.3125 5.359375 -6.65625 C 4.117188 -9.007812 3.5 -11.8125 3.5 -15.0625 C 3.5 -18.3125 4.117188 -21.109375 5.359375 -23.453125 C 6.609375 -25.804688 8.335938 -27.609375 10.546875 -28.859375 C 12.753906 -30.109375 15.265625 -30.734375 18.078125 -30.734375 Z M 18.078125 -26.5625 C 16.023438 -26.5625 14.273438 -26.097656 12.828125 -25.171875 C 11.390625 -24.253906 10.273438 -22.941406 9.484375 -21.234375 C 8.703125 -19.523438 8.3125 -17.46875 8.3125 -15.0625 C 8.3125 -12.6875 8.703125 -10.632812 9.484375 -8.90625 C 10.273438 -7.1875 11.390625 -5.863281 12.828125 -4.9375 C 14.273438 -4.019531 16.023438 -3.5625 18.078125 -3.5625 C 20.117188 -3.5625 21.863281 -4.019531 23.3125 -4.9375 C 24.757812 -5.863281 25.875 -7.1875 26.65625 -8.90625 C 27.4375 -10.632812 27.828125 -12.6875 27.828125 -15.0625 C 27.828125 -17.46875 27.4375 -19.523438 26.65625 -21.234375 C 25.875 -22.941406 24.757812 -24.253906 23.3125 -25.171875 C 21.863281 -26.097656 20.117188 -26.5625 18.078125 -26.5625 Z M 18.078125 -26.5625 "/></g></g></g></g></g><g clip-path="url(#54e404c091)"><g clip-path="url(#37ae241f10)"><g clip-path="url(#12a19e4b64)"><path stroke-linecap="butt" transform="matrix(0.530047, -0.530047, 0.530047, 0.530047, 40.962837, 44.500524)" fill="none" stroke-linejoin="miter" d="M -0.0012981 -0.00228585 L 43.343161 0.00139896 L 43.343161 44.219159 L 0.00238671 44.219159 Z M -0.0012981 -0.00228585 " stroke="#000000" stroke-width="6" stroke-opacity="1" stroke-miterlimit="4"/></g></g></g><g clip-path="url(#5754b9b953)"><g clip-path="url(#8170bb4cd3)"><g clip-path="url(#8ad5de51be)"><path stroke-linecap="butt" transform="matrix(0.530047, -0.530047, 0.530047, 0.530047, 8.79578, 33.949637)" fill="none" stroke-linejoin="miter" d="M 0.00142727 0.000638179 L 42.133583 0.000638179 L 42.133583 42.516015 L 0.00142727 42.516015 Z M 0.00142727 0.000638179 " stroke="#000000" stroke-width="6" stroke-opacity="1" stroke-miterlimit="4"/></g></g></g><g clip-path="url(#229170c704)"><g clip-path="url(#4d341ffbdc)"><g clip-path="url(#6073d21786)"><path stroke-linecap="butt" transform="matrix(0.530047, -0.530047, 0.530047, 0.530047, 0.00665874, 66.116196)" fill="none" stroke-linejoin="miter" d="M 0.00015304 0.00202367 L 40.33412 0.00202367 L 40.33412 40.704472 L 0.00015304 40.704472 Z M 0.00015304 0.00202367 " stroke="#000000" stroke-width="6" stroke-opacity="1" stroke-miterlimit="4"/></g></g></g><g clip-path="url(#ec59bafae2)"><g clip-path="url(#e908f98305)"><g clip-path="url(#0039e9ea45)"><path stroke-linecap="butt" transform="matrix(0.530047, -0.530047, 0.530047, 0.530047, 32.081721, 76.249895)" fill="none" stroke-linejoin="miter" d="M 0.000193811 0.000392318 L 41.32906 0.000392318 L 41.32906 42.184136 L 0.000193811 42.184136 Z M 0.000193811 0.000392318 " stroke="#000000" stroke-width="6" stroke-opacity="1" stroke-miterlimit="4"/></g></g></g><g clip-path="url(#6f92dc5ecf)"><g clip-path="url(#bf977c54db)"><g clip-path="url(#a5aedb8566)"><g transform="matrix(1, 0, 0, 1, 31, 44)"><g clip-path="url(#5bf49aec2c)"><g clip-path="url(#41de0ea56c)"><g clip-path="url(#1299f8155b)"><g clip-path="url(#95f605796a)"><path fill="#000000" d="M 11.519531 -1.449219 L 24.664062 11.695312 L 12.246094 24.109375 L -0.894531 10.96875 Z M 11.519531 -1.449219 " fill-opacity="1" fill-rule="nonzero"/></g></g></g></g></g></g></g></g><g clip-path="url(#6ba7f74e35)"><g clip-path="url(#b4ecd1a096)"><g clip-path="url(#4fc96c3545)"><g clip-path="url(#440bca7d39)"><path stroke-linecap="butt" transform="matrix(0.530047, 0.530047, -0.530047, 0.530047, 42.517531, 42.554987)" fill="none" stroke-linejoin="miter" d="M 4.998211 -0.0021687 L 19.800106 0.00151612 C 21.126639 0.00151612 22.394215 0.52476 23.333842 1.464387 C 24.269785 2.40033 24.796713 3.67159 24.796713 4.998123 L 24.796713 18.410844 C 24.796713 19.737376 24.269785 21.008637 23.330158 21.948264 C 22.394215 22.884207 21.122954 23.411135 19.796422 23.411135 L 4.998211 23.411135 C 3.671678 23.411135 2.400418 22.884207 1.464475 21.948264 C 0.528533 21.012322 0.00160423 19.741061 0.00160423 18.414528 L -0.00208058 4.998123 C -0.00208058 3.67159 0.524848 2.40033 1.46079 1.464387 C 2.400418 0.52476 3.671678 -0.0021687 4.998211 -0.0021687 Z M 4.998211 -0.0021687 " stroke="#000000" stroke-width="4" stroke-opacity="1" stroke-miterlimit="4"/></g></g></g></g></svg>